<?xml version="1.0" encoding="utf-8"?>
<!-- Svg Vector Icons : http://www.sfont.cn -->
<!DOCTYPE svg PUBLIC "-//W3C//DTD SVG 1.1//EN" "http://www.w3.org/Graphics/SVG/1.1/DTD/svg11.dtd">
<svg version="1.1" xmlns="http://www.w3.org/2000/svg" xmlns:xlink="http://www.w3.org/1999/xlink" x="0px" y="0px" viewBox="0 0 1000 1000" enable-background="new 0 0 1000 1000" xml:space="preserve">
<metadata> Svg Vector Icons : http://www.sfont.cn </metadata>
<g><g transform="translate(0.000000,511.000000) scale(0.100000,-0.100000)"><path d="M4596.6,4752.5c-720.8-88.1-1194.8-221.3-1753-497.5C1496.1,3589,534.4,2366.8,209.3,905.7C105.5,441.5,70.2-259.7,127-700.4c119.5-922.5,481.8-1776.5,1047.9-2477.7c284-350.6,750.2-759.9,1159.5-1018.5c176.3-111.6,630.7-342.8,671.8-342.8c19.6,0,82.3,96,82.3,123.4c0,5.9-94,64.6-209.6,133.2c-446.6,262.5-938.2,685.5-1257.4,1081.2c-566,701.2-912.7,1543.4-1002.8,2432.6c-31.3,319.2-13.7,873.6,39.2,1175.2c174.3,987.2,597.4,1788.2,1308.4,2477.7c366.3,354.5,707.1,591.5,1171.3,814.8c617,293.8,1181.1,419.2,1905.7,419.2c716.9,0,1316.2-139.1,1952.8-450.5c1177.1-575.8,2042.8-1631.5,2370-2887c107.7-413.3,135.2-638.5,137.1-1059.6c0-319.3-5.9-401.5-45.1-575.8c-199.8-887.3-793.3-1723.6-1617.8-2275.9c-522.9-352.6-1042-550.4-1578.7-605.2c-260.5-25.5-272.3-23.5-450.5,109.7C5554.4-3432.7,4628-2459.2,4669.1-2424c7.8,5.9,170.4,68.6,358.4,135.1c188,68.5,501.4,184.1,693.4,258.5c193.9,74.4,356.5,135.2,364.3,135.2s9.8-99.9,3.9-219.4c-9.8-266.4,7.8-305.5,150.8-313.4c131.2-7.8,152.7,41.1,172.3,393.7l15.7,282.1l381.9,162.6c746.2,321.2,1243.7,585.6,1404.3,746.2c107.7,105.8,115.6,203.7,27.4,303.6c-144.9,166.5-714.9,427-1666.8,763.9l-186.1,64.6l-5.9,97.9c-7.8,172.4-82.3,875.5-113.6,1087c-66.6,460.3-176.3,803-293.8,910.8c-76.4,70.5-188,66.6-307.5-9.8c-207.6-131.2-593.5-546.5-1081.2-1165.4c-127.3-160.6-233.1-295.8-235-299.7c-2-2-166.5,35.3-364.3,82.3c-703.2,170.4-1179.1,250.7-1506.2,254.6c-174.3,2-215.4-3.9-274.2-39.2c-99.9-58.8-156.7-152.8-156.7-260.5c2-264.4,315.3-842.2,854-1563c101.8-135.1,184.1-248.8,184.1-250.7c0-2-80.3-135.1-180.2-295.8c-221.3-360.4-454.4-783.5-558.2-1016.5c-201.7-446.6-213.5-675.7-39.2-767.8c174.3-92.1,832.4,35.3,1819.6,352.6l327.1,105.8l303.6-325.2c544.5-585.6,963.7-975.4,1143.8-1063.5c78.3-37.2,107.7-39.2,295.8-29.4C7520.9-3830.3,8925.2-2852.9,9554-1572c264.4,538.6,366.3,1034.2,342.8,1635.5c-29.4,714.9-188,1351.5-491.6,1968.4c-250.7,511.2-528.8,901-930.4,1304.5c-415.3,417.2-812.8,697.3-1355.4,955.8c-446.5,213.5-873.5,346.7-1367.1,423.1C5554.4,4746.6,4759.2,4772.1,4596.6,4752.5z M5975.5,2041.7c50.9-160.6,99.9-432.9,129.3-724.7c27.4-254.6,49-940.1,31.3-940.1c-9.8,0-180.2,52.9-381.9,117.5c-199.8,62.7-548.4,168.4-773.7,235c-225.2,64.6-413.3,121.4-417.2,125.4c-19.6,19.6,554.3,754.1,799.1,1022.4c168.4,186.1,311.4,317.3,409.4,378l68.6,41.1l45-52.9C5908.9,2212.1,5950.1,2122,5975.5,2041.7z M2951.4,886.1c444.6-64.6,1196.7-219.4,1186.9-244.8c-3.9-11.8-113.6-166.5-240.9-344.7c-129.3-176.3-325.1-452.4-434.8-615c-109.7-160.6-205.7-289.9-213.5-284c-21.5,13.7-231.1,319.2-395.6,577.8c-258.5,407.4-411.3,699.2-470.1,897.1l-17.6,52.9h160.6C2614.5,925.3,2806.4,907.7,2951.4,886.1z M5039.3,447.4c577.8-143,1087-282,1110.5-303.6c13.7-13.7-17.6-1631.6-35.2-1739.3c-9.8-58.8-17.6-62.7-299.7-162.6c-317.3-109.7-1216.3-399.6-1310.3-419.2c-58.8-13.7-68.6-3.9-313.4,305.6c-231.1,289.9-472,607.2-687.5,899L3423.4-861l231.1,368.2c231.1,374.1,650.3,1008.7,701.2,1067.5c21.5,25.5,43.1,29.4,99.9,15.7C4494.8,580.6,4759.2,515.9,5039.3,447.4z M6882.4-81.5c642.4-219.4,1042-397.6,1194.8-532.8l74.4-66.6l-80.3-74.4c-152.8-139.1-665.9-395.7-1296.6-648.3c-166.5-64.6-307.5-119.5-315.3-119.5s-21.5,323.2-27.4,720.8C6424-406.6,6412.3-50.1,6406.4-9c-9.8,56.8-5.9,72.5,15.6,72.5C6439.7,63.5,6645.4-1.2,6882.4-81.5z M3615.4-1511.3c123.4-148.8,315.3-376.1,428.9-505.3c111.6-129.3,199.8-237,195.9-240.9c-2-3.9-199.8-60.7-438.7-125.4c-507.3-141-985.2-250.7-1161.5-268.3l-125.4-13.7l11.7,64.6c33.3,162.6,252.7,615,577.8,1190.9l170.4,299.7l58.8-64.6C3366.6-1211.6,3492-1362.4,3615.4-1511.3z"/><path d="M7372,3038.7c-415.2-66.6-689.4-509.2-566.1-910.8c197.9-642.4,1055.7-699.2,1341.7-90.1c117.5,250.7,72.5,558.2-115.5,765.8C7859.7,2995.6,7622.8,3079.8,7372,3038.7z"/></g></g>
</svg>